<svg width="24" height="27" viewBox="0 0 24 27" fill="none" xmlns="http://www.w3.org/2000/svg">
<g clip-path="url(#clip0)">
<path d="M23.71 2.21695C23.575 2.07725 23.4045 1.98052 23.2185 1.93815C23.0325 1.89578 22.8388 1.90951 22.66 1.97775L0.660001 10.2977C0.470269 10.3726 0.306921 10.5057 0.191652 10.6794C0.0763829 10.8531 0.0146484 11.0591 0.0146484 11.2701C0.0146484 11.4812 0.0763829 11.6872 0.191652 11.8609C0.306921 12.0346 0.470269 12.1677 0.660001 12.2425L10.26 16.2361L14.1 26.2201C14.1721 26.4088 14.2958 26.5714 14.4557 26.6878C14.6157 26.8042 14.8049 26.8694 15 26.8753C15.2021 26.871 15.3982 26.8031 15.5624 26.6806C15.7266 26.5581 15.8513 26.3867 15.92 26.1889L23.92 3.30895C23.9881 3.12495 24.0046 2.92459 23.9674 2.73125C23.9302 2.53791 23.8409 2.35954 23.71 2.21695ZM15 22.9233L12.21 15.6433L17 10.6617L15.59 9.19535L10.76 14.2185L3.8 11.2753L21.33 4.69215L15 22.9233Z" fill="#8EC2F2"/>
</g>
<defs>
<clipPath id="clip0">
<rect width="24" height="26" fill="white" transform="translate(0 0.875)"/>
</clipPath>
</defs>
</svg>
